<svg viewBox="0 0 810 255" fill="none" xmlns="http://www.w3.org/2000/svg">
  <g id="Group">
    <path id="Vector"
          d="M63.0667 63.2C28.6667 97.6 0.666656 126.533 0.666656 127.6C0.666656 128.533 28.8 157.467 63.3333 191.867L125.867 254.4L188.667 191.2C223.067 156.4 251.2 127.6 250.933 127.067C250.667 126.133 126 0.666617 125.6 0.666617C125.467 0.79995 97.3333 28.9333 63.0667 63.2ZM184.667 69.3333L242.667 127.333L188.667 181.467C158.933 211.333 132.667 237.467 130.4 239.6L126 243.6L121.733 239.733C110 229.467 9.86666 128.267 10.2667 127.2C10.8 125.6 124.933 11.3333 126 11.3333C126.4 11.3333 152.8 37.4666 184.667 69.3333Z"
          fill="#1D3659"/>
    <path id="Vector_2"
          d="M110.267 38.4L95.3333 53.3333L147.6 105.6L200 157.867L214.933 142.8L229.867 127.6L178 75.4666C149.467 46.8 125.867 23.3333 125.733 23.3333C125.467 23.3333 118.533 30.1333 110.267 38.4Z"
          fill="#1D3659"/>
    <path id="Vector_3"
          d="M54.8 94.1333L21.6 127.467L55.0667 161.067L88.6667 194.667L103.333 180C111.333 172 118 164.933 118 164.4C118 163.867 110.267 155.6 100.667 146.133C91.2 136.533 83.3333 128.267 83.3333 127.733C83.3333 127.067 91.4667 118.533 101.333 108.667L119.333 90.6666L104.4 75.7333C96.1333 67.4666 89.0667 60.6666 88.6667 60.6666C88.2667 60.6666 73.0667 75.7333 54.8 94.1333Z"
          fill="#1D3659"/>
    <path id="Vector_4"
          d="M110 112.8L95.7333 127.6L128.933 160.8C147.2 179.067 162.533 194 163.067 194C163.6 194 170.533 187.333 178.533 179.2L193.067 164.4L159.867 131.2C141.6 112.933 126.133 98 125.467 98C124.8 98 117.867 104.667 110 112.8Z"
          fill="#1D3659"/>
    <path id="Vector_5"
          d="M110.4 186.4L95.4666 201.467L110.667 216.667L126 232L140.667 217.067C148.8 208.8 155.333 201.867 155.333 201.6C155.333 200.933 126.533 171.333 125.867 171.333C125.467 171.333 118.533 178.133 110.4 186.4Z"
          fill="#1D3659"/>
    <path id="Vector_6"
          d="M453.2 23.4667C444.8 26.6667 434.8 36.8 432.8 44.1333C429.2 57.0667 432.933 68.5333 442.8 75.4667C446 77.6 453.867 81.2 460 83.3333C473.2 87.7333 477.6 90.2667 479.6 94.8C485.2 107.067 462.4 113.467 449.6 103.2L444.267 98.8L436.533 107.467C432.267 112.133 428.8 116.4 428.667 117.067C428.667 118.8 441.2 126 447.867 128C456.533 130.533 469.733 130.533 478.8 127.867C495.333 123.067 503.867 110.933 502.933 93.7333C502 78 496.667 72.6667 474.533 65.8667C457.867 60.6667 453.067 56 456.133 48C458.533 41.7333 474.533 39.7333 482.933 44.6667L487.733 47.4667L492.267 43.0667C494.8 40.6667 498.133 36.9333 499.733 34.8L502.533 30.9333L498.933 27.8667C490.4 20.5333 466.533 18.2667 453.2 23.4667Z"
          fill="#1D3659"/>
    <path id="Vector_7"
          d="M590.933 23.4666C580.8 26.9333 574.533 30.9333 568.133 37.9999C549.467 58.6666 550.267 93.7333 569.867 113.867C585.733 130.133 612.8 134.933 632.933 124.933C641.733 120.667 649.333 113.6 648 111.2C647.6 110.533 643.333 107.333 638.667 103.867L630.133 97.8666L626.4 101.333C612.667 114.533 590.133 109.067 581.6 90.2666C574.667 75.0666 579.867 55.1999 593.2 46.2666C598.8 42.5333 600.667 41.9999 608.533 41.9999C616.8 41.9999 619.867 42.9333 626.8 47.3333C629.333 48.9333 630.4 48.5333 637.467 42.6666C641.867 39.1999 645.467 35.8666 645.733 35.3333C646.4 33.4666 636.133 25.9999 628.933 23.3333C619.333 19.7333 601.6 19.7333 590.933 23.4666Z"
          fill="#1D3659"/>
    <path id="Vector_8"
          d="M357.333 30.9333C355.333 35.2 348.533 50.9333 342.133 66C335.6 81.0666 329.2 96 327.733 99.3333C320.667 114.933 316.667 124.533 316.667 125.867C316.667 126.8 321.067 127.333 329.067 127.333H341.333L342.933 122.267C343.733 119.6 345.733 114.533 347.2 110.933L350 104.533L370.267 104.933L390.533 105.333L394.667 116L398.8 126.667L411.867 127.067C424 127.467 424.933 127.2 424 125.067C423.467 123.733 421.867 119.6 420.4 116C418.933 112.267 414.133 101.2 409.733 91.3333C398.533 66.2666 398 65.0666 388.667 42.9333L380.267 23.3333H370.533H360.8L357.333 30.9333ZM371.333 58.1333C371.333 58.8 372.533 61.8666 374 65.0666C378.133 74 382.133 84.9333 381.6 85.6C381.2 85.8666 375.6 85.8666 369.067 85.7333L357.067 85.3333L363.067 70.4C366.267 62.1333 369.6 55.7333 370.133 56.1333C370.8 56.5333 371.333 57.3333 371.333 58.1333Z"
          fill="#1D3659"/>
    <path id="Vector_9" d="M518 75.3333V127.333H529.333H540.667V75.3333V23.3333H529.333H518V75.3333Z" fill="#1D3659"/>
    <text id="Australian Securities &#38; Investments Commission" fill="#1D3659" xml:space="preserve"
          style="white-space: pre" font-family="Inter" font-size="40" letter-spacing="0em"><tspan x="317" y="190.545">Australian Securities &#38; </tspan>
      <tspan x="317" y="238.545">Investments Commission</tspan></text>
  </g>
</svg>
